<mxfile host="app.diagrams.net" modified="2022-12-19T22:26:56.748Z" agent="5.0 (Windows NT 10.0; Win64; x64) AppleWebKit/537.36 (KHTML, like Gecko) Chrome/108.0.0.0 Safari/537.36" etag="swbCNyRpToXTmn-4fl53" version="20.7.4" type="github">
  <diagram id="C5RBs43oDa-KdzZeNtuy" name="Page-1">
    <mxGraphModel dx="1050" dy="573" grid="1" gridSize="10" guides="1" tooltips="1" connect="1" arrows="1" fold="1" page="1" pageScale="1" pageWidth="827" pageHeight="1169" math="0" shadow="0">
      <root>
        <mxCell id="WIyWlLk6GJQsqaUBKTNV-0" />
        <mxCell id="WIyWlLk6GJQsqaUBKTNV-1" parent="WIyWlLk6GJQsqaUBKTNV-0" />
        <mxCell id="FkUErzc8L0xxNj9u9bXk-5" value="" style="rounded=0;whiteSpace=wrap;html=1;" vertex="1" parent="WIyWlLk6GJQsqaUBKTNV-1">
          <mxGeometry x="340" y="290" width="120" height="40" as="geometry" />
        </mxCell>
        <mxCell id="WIyWlLk6GJQsqaUBKTNV-6" value="&lt;span style=&quot;font-family: &amp;quot;Courier New&amp;quot;;&quot;&gt;if&lt;/span&gt;&lt;br style=&quot;border-color: var(--border-color); font-family: &amp;quot;Courier New&amp;quot;;&quot;&gt;&lt;span style=&quot;font-family: &amp;quot;Courier New&amp;quot;;&quot;&gt;statement&lt;/span&gt;" style="rhombus;whiteSpace=wrap;html=1;shadow=0;fontFamily=Helvetica;fontSize=12;align=center;strokeWidth=1;spacing=6;spacingTop=-4;" parent="WIyWlLk6GJQsqaUBKTNV-1" vertex="1">
          <mxGeometry x="350" y="110" width="100" height="80" as="geometry" />
        </mxCell>
        <mxCell id="FkUErzc8L0xxNj9u9bXk-1" value="" style="rounded=0;whiteSpace=wrap;html=1;" vertex="1" parent="WIyWlLk6GJQsqaUBKTNV-1">
          <mxGeometry x="220" y="220" width="120" height="40" as="geometry" />
        </mxCell>
        <mxCell id="FkUErzc8L0xxNj9u9bXk-2" value="" style="endArrow=classic;html=1;rounded=0;exitX=0;exitY=0.5;exitDx=0;exitDy=0;edgeStyle=orthogonalEdgeStyle;" edge="1" parent="WIyWlLk6GJQsqaUBKTNV-1" source="WIyWlLk6GJQsqaUBKTNV-6" target="FkUErzc8L0xxNj9u9bXk-1">
          <mxGeometry width="50" height="50" relative="1" as="geometry">
            <mxPoint x="230" y="80" as="sourcePoint" />
            <mxPoint x="240" y="160" as="targetPoint" />
          </mxGeometry>
        </mxCell>
        <mxCell id="FkUErzc8L0xxNj9u9bXk-3" value="Execute" style="text;html=1;strokeColor=none;fillColor=none;align=center;verticalAlign=middle;whiteSpace=wrap;rounded=0;fontFamily=Courier New;" vertex="1" parent="WIyWlLk6GJQsqaUBKTNV-1">
          <mxGeometry x="250" y="225" width="60" height="30" as="geometry" />
        </mxCell>
        <mxCell id="FkUErzc8L0xxNj9u9bXk-4" value="Next code" style="text;html=1;strokeColor=none;fillColor=none;align=center;verticalAlign=middle;whiteSpace=wrap;rounded=0;fontFamily=Courier New;" vertex="1" parent="WIyWlLk6GJQsqaUBKTNV-1">
          <mxGeometry x="355" y="295" width="90" height="30" as="geometry" />
        </mxCell>
        <mxCell id="FkUErzc8L0xxNj9u9bXk-6" value="" style="endArrow=classic;html=1;rounded=0;fontFamily=Courier New;exitX=0.5;exitY=1;exitDx=0;exitDy=0;edgeStyle=orthogonalEdgeStyle;entryX=0;entryY=0.5;entryDx=0;entryDy=0;" edge="1" parent="WIyWlLk6GJQsqaUBKTNV-1" source="FkUErzc8L0xxNj9u9bXk-1" target="FkUErzc8L0xxNj9u9bXk-5">
          <mxGeometry x="1" width="50" height="50" relative="1" as="geometry">
            <mxPoint x="220" y="370" as="sourcePoint" />
            <mxPoint x="270" y="320" as="targetPoint" />
            <mxPoint as="offset" />
          </mxGeometry>
        </mxCell>
        <mxCell id="FkUErzc8L0xxNj9u9bXk-7" value="" style="endArrow=classic;html=1;rounded=0;fontFamily=Courier New;exitX=1;exitY=0.5;exitDx=0;exitDy=0;edgeStyle=orthogonalEdgeStyle;entryX=1;entryY=0.5;entryDx=0;entryDy=0;" edge="1" parent="WIyWlLk6GJQsqaUBKTNV-1" source="WIyWlLk6GJQsqaUBKTNV-6" target="FkUErzc8L0xxNj9u9bXk-5">
          <mxGeometry x="1" width="50" height="50" relative="1" as="geometry">
            <mxPoint x="450" y="150" as="sourcePoint" />
            <mxPoint x="510" y="200" as="targetPoint" />
            <mxPoint as="offset" />
            <Array as="points">
              <mxPoint x="520" y="150" />
              <mxPoint x="520" y="310" />
            </Array>
          </mxGeometry>
        </mxCell>
        <mxCell id="FkUErzc8L0xxNj9u9bXk-8" value="&lt;b style=&quot;&quot;&gt;&lt;font style=&quot;font-size: 15px;&quot; color=&quot;#009900&quot;&gt;True&lt;/font&gt;&lt;/b&gt;" style="text;html=1;strokeColor=none;fillColor=none;align=center;verticalAlign=middle;whiteSpace=wrap;rounded=0;fontFamily=Courier New;" vertex="1" parent="WIyWlLk6GJQsqaUBKTNV-1">
          <mxGeometry x="260" y="110" width="90" height="30" as="geometry" />
        </mxCell>
        <mxCell id="FkUErzc8L0xxNj9u9bXk-9" value="&lt;b style=&quot;&quot;&gt;&lt;font color=&quot;#cc0000&quot; style=&quot;font-size: 15px;&quot;&gt;False&lt;/font&gt;&lt;/b&gt;" style="text;html=1;strokeColor=none;fillColor=none;align=center;verticalAlign=middle;whiteSpace=wrap;rounded=0;fontFamily=Courier New;" vertex="1" parent="WIyWlLk6GJQsqaUBKTNV-1">
          <mxGeometry x="450" y="110" width="90" height="30" as="geometry" />
        </mxCell>
        <mxCell id="FkUErzc8L0xxNj9u9bXk-12" value="" style="endArrow=classic;html=1;rounded=0;fontFamily=Courier New;fontSize=15;fontColor=#CC0000;" edge="1" parent="WIyWlLk6GJQsqaUBKTNV-1" target="WIyWlLk6GJQsqaUBKTNV-6">
          <mxGeometry width="50" height="50" relative="1" as="geometry">
            <mxPoint x="400" y="60" as="sourcePoint" />
            <mxPoint x="400" y="20" as="targetPoint" />
          </mxGeometry>
        </mxCell>
        <mxCell id="FkUErzc8L0xxNj9u9bXk-13" value="" style="endArrow=classic;html=1;rounded=0;fontFamily=Courier New;fontSize=15;fontColor=#CC0000;exitX=0.5;exitY=1;exitDx=0;exitDy=0;" edge="1" parent="WIyWlLk6GJQsqaUBKTNV-1" source="FkUErzc8L0xxNj9u9bXk-5">
          <mxGeometry x="1" y="175" width="50" height="50" relative="1" as="geometry">
            <mxPoint x="399.5" y="340" as="sourcePoint" />
            <mxPoint x="400" y="380" as="targetPoint" />
            <mxPoint x="-105" y="160" as="offset" />
          </mxGeometry>
        </mxCell>
        <mxCell id="FkUErzc8L0xxNj9u9bXk-14" value="&lt;b&gt;&#39;if statement&#39;&lt;/b&gt;" style="text;html=1;strokeColor=none;fillColor=none;align=center;verticalAlign=middle;whiteSpace=wrap;rounded=0;fontFamily=Courier New;fontSize=15;fontColor=#000000;fontStyle=0;labelBackgroundColor=#E6E6E6;" vertex="1" parent="WIyWlLk6GJQsqaUBKTNV-1">
          <mxGeometry x="190" y="40" width="130" height="30" as="geometry" />
        </mxCell>
      </root>
    </mxGraphModel>
  </diagram>
</mxfile>
